<svg id="Calque_1" data-name="Calque 1" xmlns="http://www.w3.org/2000/svg" xmlns:xlink="http://www.w3.org/1999/xlink" viewBox="0 0 692.85 658.94"><defs><style>.cls-1{fill:#fff;}.cls-2{fill:url(#Eté);}</style><radialGradient id="Eté" cx="987.52" cy="544.58" r="338.05" gradientUnits="userSpaceOnUse"><stop offset="0" stop-color="#fff"/><stop offset="0.09" stop-color="#ffedd8"/><stop offset="0.21" stop-color="#ffd5a7"/><stop offset="0.33" stop-color="#ffc17d"/><stop offset="0.46" stop-color="#ffb05b"/><stop offset="0.59" stop-color="#ffa340"/><stop offset="0.72" stop-color="#ff9a2d"/><stop offset="0.86" stop-color="#ff9522"/><stop offset="1" stop-color="#ff931e"/></radialGradient></defs><polygon class="cls-1" points="346.43 0 453.48 216.91 692.85 251.69 519.64 420.53 560.53 658.94 346.43 546.38 132.32 658.94 173.21 420.53 0 251.69 239.38 216.91 346.43 0"/><path class="cls-2" d="M987.52,226.4l102.56,207.83,1.17,2.35,2.6.38,229.35,33.33-166,161.77-1.88,1.83.44,2.59L1195,864.91,989.84,757.06l-2.32-1.22-2.33,1.22L780.05,864.91l39.18-228.43.45-2.59-1.89-1.83L651.84,470.29,881.18,437l2.61-.38,1.16-2.35L987.52,226.4m0-11.3L880.47,432,641.09,466.8,814.3,635.64,773.41,874.05,987.52,761.49l214.1,112.56-40.89-238.41L1333.94,466.8,1094.57,432l-107-216.91Z" transform="translate(-641.09 -215.1)"/></svg>